<?xml version="1.0" encoding="utf-8"?>
<!-- Generator: Adobe Illustrator 16.0.4, SVG Export Plug-In . SVG Version: 6.00 Build 0)  -->
<!DOCTYPE svg PUBLIC "-//W3C//DTD SVG 1.1//EN" "http://www.w3.org/Graphics/SVG/1.1/DTD/svg11.dtd">
<svg version="1.1" id="Layer_1" xmlns="http://www.w3.org/2000/svg" xmlns:xlink="http://www.w3.org/1999/xlink" x="0px" y="0px"
	 width="1280px" height="300px" viewBox="0 0 1280 300" enable-background="new 0 0 1280 300" xml:space="preserve">
<g>
	<polygon fill="none" points="834.643,299 1004.875,299 910.545,181.518 	"/>
	<polygon fill="none" points="433.503,72.835 535.369,199.703 666.977,-4 472.626,-4 480.047,0.794 	"/>
	<polygon fill="none" points="119.718,-4 0,-4 0,181.3 	"/>
	<polygon fill="none" points="372.319,167.536 287.384,299 471.216,299 474.185,294.404 	"/>
	<polygon fill="#494E6B" points="480.047,0.794 472.626,-4 371.81,-4 433.503,72.835 	"/>
	<polygon fill="#494E6B" points="0,299 287.384,299 372.319,167.536 234.748,-3.8 234.998,-4 119.718,-4 0,181.3 	"/>
	<polygon fill="#98878F" points="615.098,299 834.643,299 910.545,181.518 761.748,-3.8 761.997,-4 666.977,-4 535.369,199.703 	"/>
	<polygon fill="#98878F" points="471.216,299 477.875,299 474.185,294.404 	"/>
	<polygon fill="#192231" points="910.545,181.518 1004.875,299 1280,299 1280,-4 761.997,-4 761.748,-3.8 	"/>
	<polygon fill="#985E6D" points="372.319,167.536 474.185,294.404 477.875,299 615.098,299 535.369,199.703 433.503,72.835 
		371.81,-4 234.998,-4 234.748,-3.8 	"/>
</g>
</svg>
