<?xml version="1.0" encoding="utf-8"?>
<!-- Generator: Adobe Illustrator 16.0.4, SVG Export Plug-In . SVG Version: 6.00 Build 0)  -->
<!DOCTYPE svg PUBLIC "-//W3C//DTD SVG 1.1//EN" "http://www.w3.org/Graphics/SVG/1.1/DTD/svg11.dtd">
<svg version="1.1" id="Layer_1" xmlns="http://www.w3.org/2000/svg" xmlns:xlink="http://www.w3.org/1999/xlink" x="0px" y="0px"
	 width="1280px" height="300px" viewBox="0 0 1280 300" enable-background="new 0 0 1280 300" xml:space="preserve">
<rect x="431.875" y="-227" fill="none" width="169.792" height="98.958"/>
<text transform="matrix(1 0 0 1 431.875 -214.2202)"><tspan x="0" y="0" font-family="'MyriadPro-Regular'" font-size="18"> stormy: #</tspan><tspan x="72.647" y="0" stroke="#494E6B" stroke-miterlimit="10" font-family="'MyriadPro-Regular'" font-size="18">494E6B</tspan><tspan x="0" y="21.6" font-family="'MyriadPro-Regular'" font-size="18">cloud: #98878F</tspan><tspan x="0" y="43.2" font-family="'MyriadPro-Regular'" font-size="18">sunset: #985E6D</tspan><tspan x="0" y="64.8" font-family="'MyriadPro-Regular'" font-size="18">evening: #192231 </tspan></text>
<g>
	<polygon fill="none" points="528.957,1 414.585,1 458.618,55.84 	"/>
	<polygon fill="none" points="976.894,264.15 932.195,299 1004.875,299 	"/>
	<polygon fill="none" points="163.833,299 227.394,299 192.173,255.135 	"/>
	<polygon fill="#98878F" points="765.602,1 528.957,1 458.618,55.84 653.858,299 932.195,299 976.894,264.15 	"/>
	<polygon fill="#192231" points="1004.875,299 1280,299 1280,1 765.602,1 976.894,264.15 	"/>
	<polygon fill="#985E6D" points="414.585,1 356.363,1 192.173,255.135 227.394,299 653.858,299 458.618,55.84 	"/>
	<polygon fill="#494E6B" points="356.363,1 0,1 0,299 163.833,299 192.173,255.135 	"/>
</g>
</svg>
