<svg id="Background" xmlns="http://www.w3.org/2000/svg" xmlns:xlink="http://www.w3.org/1999/xlink" viewBox="0 0 2607.02 1650.36"><defs><style>.cls-1{opacity:0.9;}.cls-2,.cls-3,.cls-4{fill:#fff;}.cls-2,.cls-3,.cls-5{stroke:#fff;stroke-miterlimit:10;}.cls-2{stroke-width:5px;}.cls-3,.cls-5{stroke-width:4px;}.cls-5{fill:url(#White_Black);}</style><linearGradient id="White_Black" x1="262.86" y1="540.02" x2="894.5" y2="540.02" gradientTransform="matrix(1, 0, 0, 1, 26.57, 18.35)" gradientUnits="userSpaceOnUse"><stop offset="0" stop-color="#fff"/><stop offset="1"/></linearGradient></defs><title>KML</title><image id="background-2" data-name="background" class="cls-1" x="26.41" y="18.52" width="2560" height="1600" xlink:href="purplegradiant.jpg"/><g id="L"><line id="downDiagL" class="cls-2" x1="2421.91" y1="1361.02" x2="2604.91" y2="1649.02"/><line id="topDiagL" class="cls-3" x1="1718.69" y1="301.51" x2="2142.09" y2="15.91"/><line id="acrossL" class="cls-2" x1="1442.5" y1="1630.14" x2="2604.91" y2="497.02"/><g id="mainBottomL"><polygon class="cls-4" points="1718.42 1359.02 1816.17 1229.02 2518.4 1229.02 2420.65 1359.02 1718.42 1359.02"/><path class="cls-4" d="M2487,1213l-94,125H1697l94-125h696m10-5H1788.51L1687,1343h708.49L2497,1208Z" transform="translate(26.41 18.52)"/></g><g id="mainBackL"><polygon class="cls-4" points="1716.91 294.92 1847.91 214.97 1847.91 1277.11 1716.91 1357.06 1716.91 294.92"/><path class="cls-4" d="M1819,200.91V1257.19l-126,76.9V277.81l126-76.9m5-8.91-136,83V1343l136-83V192Z" transform="translate(26.41 18.52)"/></g></g><g id="K"><line id="upK" class="cls-3" x1="301.41" y1="1490.52" x2="303.63" y2="6.24"/><line id="bottomDiagK" class="cls-5" x1="289.27" y1="832.07" x2="921.41" y2="284.52"/><line id="bottomDiagK-2" data-name="bottomDiagK" class="cls-3" x1="423.91" y1="1618.02" x2="15.04" y2="1202.1"/><line id="topDiagK" class="cls-3" x1="1.05" y1="850.62" x2="1371.23" y2="9.76"/><g id="MainK"><polygon class="cls-4" points="167.41 286.63 299.41 204.13 299.41 1267.41 167.41 1349.91 167.41 286.63"/><path class="cls-4" d="M271,189.22V1247.78l-128,80V269.22l128-80m4-7.22L139,267V1335l136-85V182Z" transform="translate(26.41 18.52)"/></g><line id="downDiagK" class="cls-3" x1="224.91" y1="656.02" x2="1188.91" y2="1629.02"/></g><g id="M"><line id="topMidM" class="cls-3" x1="1713.41" y1="293.52" x2="1428.91" y2="1353.02"/><line id="leftDiagM" class="cls-3" x1="987.99" y1="0.62" x2="1428.91" y2="1353.02"/><g id="mainM"><polygon class="cls-4" points="922.41 285.63 1053.41 205.09 1053.41 1268.4 922.41 1348.94 922.41 285.63"/><path class="cls-4" d="M1025,190.15V1248.76l-127,78.08V268.24l127-78.08m4-7.15L894,266V1334l135-83V183Z" transform="translate(26.41 18.52)"/></g><line id="bottomMidM" class="cls-3" x1="1783.91" y1="265.02" x2="1334.91" y2="1643.02"/><line id="bottomDownM" class="cls-3" x1="919.91" y1="1352.02" x2="919.91" y2="1629.02"/></g></svg>