
<svg version="1.1" id="Background" xmlns="http://www.w3.org/2000/svg" xmlns:xlink="http://www.w3.org/1999/xlink" x="0px" y="0px"
	 viewBox="0 0 2607 1650.4" style="enable-background:new 0 0 2607 1650.4;" xml:space="preserve">
<style type="text/css">
	.st0{fill:none;stroke:#FFFFFF;stroke-width:5;stroke-miterlimit:10;}
	.st1{fill:none;stroke:#FFFFFF;stroke-width:4;stroke-miterlimit:10;}
	.st2{fill:#FFFFFF;}
</style>
<title>KML</title>
<g id="L">
	<line id="downDiagL" class="st0" x1="2194.8" y1="1203.4" x2="2505.8" y2="1688.4"/>
	<line id="topDiagL" class="st1" x1="1637" y1="371.6" x2="2234" y2="-23.8"/>
	<line id="acrossL" class="st0" x1="1155" y1="1669.4" x2="2636.3" y2="237.1"/>
	<g id="mainBottomL">
		<polygon class="st2" points="1633.6,1209.5 1712.3,1101.5 2279.9,1099.6 2201.2,1207.6 		"/>
	</g>
	<g id="mainBackL">
		<polygon class="st2" points="1635.6,366.5 1739.5,303.7 1739.5,1137.6 1635.6,1200.3 		"/>
		<path class="st2" d="M1737.5,307.2v829.3l-100,60.4V367.6L1737.5,307.2 M1741.5,300.2l-107.9,65.2v838.5l107.9-65.2V300.2z"/>
	</g>
</g>
<g id="K">
	<line id="upK" class="st1" x1="515.3" y1="1674.9" x2="517.1" y2="-18.4"/>
	<line id="bottomDiagK" class="st1" x1="505.7" y1="787.4" x2="1005.7" y2="357"/>
	<line id="bottomDiagK-2" class="st1" x1="915.9" y1="1712.9" x2="-59.8" y2="723.6"/>
	<line id="topDiagK" class="st1" x1="-32.7" y1="992.7" x2="1617.1" y2="-15.6"/>
	<g id="MainK">
		<polygon class="st2" points="409.3,358.7 513.7,293.8 513.7,1129.6 409.3,1194.4 		"/>
		<path class="st2" d="M512.1,296.6v832.1l-101.2,62.9V359.5L512.1,296.6 M515.3,291l-107.6,66.8v839.5l107.6-66.8V291z"/>
	</g>
	<line id="downDiagK" class="st1" x1="454.8" y1="649" x2="1217.3" y2="1413.8"/>
</g>
<g id="M">
	<line id="topMidM" class="st1" x1="1632.1" y1="364.1" x2="1407.1" y2="1196.9"/>
	<line id="leftDiagM" class="st1" x1="997.4" y1="-48.3" x2="1407.1" y2="1196.9"/>
	<g id="mainM">
		<polygon class="st2" points="1006.5,357.9 1110.1,294.6 1110.1,1130.4 1006.5,1193.7 		"/>
		<path class="st2" d="M1108.5,297.4v832.1l-100.5,61.4V358.8L1108.5,297.4 M1111.7,291.8L1004.9,357v839.5l106.8-65.2V291.8
			L1111.7,291.8z"/>
	</g>
	<line id="bottomMidM" class="st1" x1="1687.9" y1="341.7" x2="1332.8" y2="1424.8"/>
	<line id="bottomDownM" class="st1" x1="1004.5" y1="1196.1" x2="1004.5" y2="1413.8"/>
	<line id="leftDiagM_1_" class="st1" x1="1081.7" y1="320.5" x2="1611.6" y2="1759.1"/>
</g>
</svg>
