<svg id="Background" xmlns="http://www.w3.org/2000/svg" viewBox="0 0 2607.02 1650.36"><defs><style>.cls-1,.cls-2{fill:none;stroke:#fff;stroke-miterlimit:10;}.cls-1{stroke-width:5px;}.cls-2{stroke-width:4px;}.cls-3{fill:#fff;}</style></defs><title>KML2</title><g id="L"><line id="downDiagL" class="cls-1" x1="2421.91" y1="1361.02" x2="2604.91" y2="1649.02"/><line id="topDiagL" class="cls-2" x1="1718.69" y1="301.51" x2="2142.09" y2="15.91"/><line id="acrossL" class="cls-1" x1="1442.5" y1="1630.14" x2="2604.91" y2="497.02"/><g id="mainBottomL"><polygon class="cls-3" points="1718.42 1359.02 1816.17 1229.02 2518.4 1229.02 2420.65 1359.02 1718.42 1359.02"/><path class="cls-3" d="M2513.41,1231.52l-94,125h-696l94-125h696m10-5H1814.92l-101.51,135H2421.9Z" transform="translate(0 0)"/></g><g id="mainBackL"><polygon class="cls-3" points="1716.91 294.92 1847.91 214.97 1847.91 1277.11 1716.91 1357.06 1716.91 294.92"/><path class="cls-3" d="M1845.41,219.43V1275.71l-126,76.9V296.33l126-76.9m5-8.91-136,83v1068l136-83Z" transform="translate(0 0)"/></g></g><g id="K"><line id="upK" class="cls-2" x1="301.41" y1="1490.52" x2="303.63" y2="6.24"/><line id="bottomDiagK" class="cls-2" x1="289.27" y1="832.07" x2="921.41" y2="284.52"/><line id="bottomDiagK-2" class="cls-2" x1="423.91" y1="1618.02" x2="15.04" y2="1202.1"/><line id="topDiagK" class="cls-2" x1="1.05" y1="850.62" x2="1371.23" y2="9.76"/><g id="MainK"><polygon class="cls-3" points="167.41 286.63 299.41 204.13 299.41 1267.41 167.41 1349.91 167.41 286.63"/><path class="cls-3" d="M297.41,207.74V1266.3l-128,80V287.74l128-80m4-7.22-136,85v1068l136-85Z" transform="translate(0 0)"/></g><line id="downDiagK" class="cls-2" x1="224.91" y1="656.02" x2="1188.91" y2="1629.02"/></g><g id="M"><line id="topMidM" class="cls-2" x1="1713.41" y1="293.52" x2="1428.91" y2="1353.02"/><line id="leftDiagM" class="cls-2" x1="987.99" y1="0.62" x2="1428.91" y2="1353.02"/><g id="mainM"><polygon class="cls-3" points="922.41 285.63 1053.41 205.09 1053.41 1268.4 922.41 1348.94 922.41 285.63"/><path class="cls-3" d="M1051.41,208.67V1267.28l-127,78.08V286.76l127-78.08m4-7.15-135,83v1068l135-83v-1068Z" transform="translate(0 0)"/></g><line id="bottomMidM" class="cls-2" x1="1783.91" y1="265.02" x2="1334.91" y2="1643.02"/><line id="bottomDownM" class="cls-2" x1="919.91" y1="1352.02" x2="919.91" y2="1629.02"/></g></svg>